<svg viewBox="0 0 1000 1000" xmlns="http://www.w3.org/2000/svg" xmlns:xlink="http://www.w3.org/1999/xlink"> 
  <style>
    #plate {
      fill: #00aaaa;
    }
  </style>
  <path id="base" d="
    M0,500
    L250,66.9872981077807
    L750,66.9872981077807
    L1000,500
    L750,933.0127018922193
    L250,933.0127018922193z
  "/>
  <path id="plate" d="
    M50,500
    L275,110.28856829700266
    L725,110.28856829700266
    L950,500
    L725,889.7114317029973
    L275,889.7114317029973z
  "/>
  <g id="outers">
    <defs>
      <path fill="rgba(0,255,255,0.5)" id="shade1" d="M250,66.9872981077807L275,110.28856829700266L725,110.28856829700266L750,66.9872981077807z"/>
      <path fill="rgba(0,255,255,0.5)" id="shade2" d="M250,66.9872981077807L275,110.28856829700266L725,110.28856829700266L750,66.9872981077807z"/>
      <path fill="rgba(0,255,255,0.5)" id="shade3" d="M250,66.9872981077807L275,110.28856829700266L725,110.28856829700266L750,66.9872981077807z"/>
    </defs>
  </g>
  <use xlink:href="#shade1" transform="rotate(0, 500, 500)"/>
  <use xlink:href="#shade2" transform="rotate(120, 500, 500)"/>
  <use xlink:href="#shade3" transform="rotate(240, 500, 500)"/>
  <linearGradient id="shadow" x1="50%" x2="50%" y2="0" y1="100%">
    <stop offset="0" stop-color="cyan"/>
    <stop offset="1" stop-color="transparent"/>
  </linearGradient>
</svg>